<svg xmlns="http://www.w3.org/2000/svg" width="60.857" height="32.63" viewBox="0 0 60.857 32.63"><g transform="translate(-183.571 -19.682)"><path d="M102.889,87.629a7.339,7.339,0,0,1,.229-1.086,1.424,1.424,0,0,0,.172-.971,1.36,1.36,0,0,1,.171-.8,1.645,1.645,0,0,1-.171-.914v-.514c0-.057-.057-.114-.057-.171-.057-.114-.171-.171-.4-.171a3.368,3.368,0,0,0-.457.229A4.461,4.461,0,0,0,101,84.772a7.576,7.576,0,0,0-.914,1.943c-.343.914-.914,1.714-1.2,2.686a19.2,19.2,0,0,0-1.257,2.4,14.974,14.974,0,0,0-1.086,2.629,23.955,23.955,0,0,1-1.657,3.943L94.374,99.4a8.087,8.087,0,0,0-.457,1.028,11.826,11.826,0,0,1-.857,1.943l-.343.686a5.165,5.165,0,0,0-.457,1.2,12.884,12.884,0,0,0-.343,2.057c0,.114-.114.229-.171.343a3.533,3.533,0,0,0-.4-1.086l.172-.057a.724.724,0,0,1-.057-.343,1.668,1.668,0,0,0-.114-.514,9.911,9.911,0,0,1-.4-1.2,4.488,4.488,0,0,1-.286-1.257,8.34,8.34,0,0,1-.171-1.257c0-.057-.057-.114-.057-.171a17.3,17.3,0,0,0-.343-1.829,4.452,4.452,0,0,0-.171-1.257,9.148,9.148,0,0,0-.286-1.2,1.58,1.58,0,0,1-.171-.743c.057-.629-.229-1.2-.229-1.829-.286-.629-.286-1.371-.571-2-.057-.057-.114-.114-.114-.171a3.233,3.233,0,0,0-.457-1.429l-.171-.343v-.629a4.886,4.886,0,0,0-2.229-1.657,1.288,1.288,0,0,0-.971,1.029v1.143a1.834,1.834,0,0,0,.114.971A9.546,9.546,0,0,1,85.174,93a.344.344,0,0,0,.057.229,2.334,2.334,0,0,1,.057,1.086,2.756,2.756,0,0,0,0,.686,2.781,2.781,0,0,1,.057.686,1.914,1.914,0,0,0,0,.571.937.937,0,0,1,.051.126,1.939,1.939,0,0,0-.336.56,10.645,10.645,0,0,1-.971,2.343c-.229.4-.457.743-.686,1.143-.514.972-1.143,1.886-1.714,2.8a12.573,12.573,0,0,1-.971,1.429c-.457.571-.857,1.143-1.315,1.657l-1.2,1.2a15.134,15.134,0,0,1-1.486,1.2c-.343.286-.743.514-1.086.8A12.66,12.66,0,0,1,73.4,110.83a6.481,6.481,0,0,1-1.829.343c-.286-.171-.571-.057-.914-.114-.229-.114-.514-.286-.743-.4-.286-.4-.4-.8-.686-1.143a.428.428,0,0,1-.057-.286,4.616,4.616,0,0,1-.286-1.771,4.008,4.008,0,0,1-.114-1.657,2.708,2.708,0,0,1,.057-.971,4.277,4.277,0,0,0,.114-1.2,2.984,2.984,0,0,1,.229-1.2,2.285,2.285,0,0,1,.857-.514l-.114-.171c.743-.286,1.372-.8,2.115-1.086.229-.114.457-.286.686-.4A17.123,17.123,0,0,0,74.946,99c.057-.057.114-.114.171-.114a3.077,3.077,0,0,0,1.2-.457c.686-.286,1.371-.571,2.172-.914.171-.172.4-.457.686-.743l.171-.686c-.229-.514-.686-.8-.972-1.257a4.231,4.231,0,0,0-.686-.743c-.057-.057-.114-.057-.171-.114a10.105,10.105,0,0,1-1.257-.914,2.193,2.193,0,0,0-1.314-.628l-.514-.171a5.94,5.94,0,0,0-2.457-.286,2.488,2.488,0,0,1-.971.4,9.069,9.069,0,0,0-2,1.257,4.315,4.315,0,0,0-.8.629A9.152,9.152,0,0,1,67.46,95c-.229.229-.343.572-.571.8a8.5,8.5,0,0,0-.857,1.143l-.171.343a4.671,4.671,0,0,0-.686,1.143l-1.2,2.743a1.941,1.941,0,0,0-.171,1.143,1.848,1.848,0,0,1-.171.972,1.449,1.449,0,0,1,.114.686,12.486,12.486,0,0,1,.171,2.057c0,.057.057.114.114.171a1.585,1.585,0,0,1,.057.514,4.266,4.266,0,0,0,.857,2.457,4.854,4.854,0,0,0,1.314,1.543,1.511,1.511,0,0,1,.286.343c.343.571.914.857,1.372,1.314.057.057.171.057.229.114a8.365,8.365,0,0,0,2.057.914,3.327,3.327,0,0,0,2.229.114.725.725,0,0,1,.343-.057,3.017,3.017,0,0,0,1.429-.229,7.324,7.324,0,0,0,2.057-.914l.343-.171a4.692,4.692,0,0,0,1.429-.914c.4-.286.743-.628,1.143-.914l1.714-1.371A12.525,12.525,0,0,1,82.2,107.8c.057-.057.114-.114.114-.171.057-.229.229-.343.4-.514l1.371-1.372a6.1,6.1,0,0,0,.8-.914,10.079,10.079,0,0,1,.686-.972,7.571,7.571,0,0,1,.728-1.188c.165.625.27,1.249.414,1.874.114.572.286,1.143.343,1.714a4.756,4.756,0,0,0,.229.857,1.581,1.581,0,0,1,.171.743v.343c.171.686.4,1.371.571,2.057a7.105,7.105,0,0,1,.343,2.457.2.2,0,0,0,.057.114c.171.286.457.171.686.286a3.66,3.66,0,0,0,2.171,1.143c.171-.229.514-.057.857-.286a1.879,1.879,0,0,1,.343-.343,1.248,1.248,0,0,0,.4-1.429c.114-.114.229-.171.229-.343-.057-.114-.114-.286-.171-.4a.849.849,0,0,1-.114-.514l.343-.514c.171-.286.171-.629.4-.857.057-.457.4-.8.343-1.257A5.874,5.874,0,0,1,95,105.972a1.363,1.363,0,0,0,.343-.629,4.613,4.613,0,0,0,.286-1.771v-.514l.343-.514a11.51,11.51,0,0,0,.8-1.429c.228-.514.4-1.029.571-1.543a2.113,2.113,0,0,1,.286-.629c.572-.857.971-1.829,1.486-2.743.057-.057.114-.114.114-.171l.857-2.229c.172-.457.4-.914.571-1.371s.457-.857.629-1.314a8.654,8.654,0,0,0,1.029-2.057A6.219,6.219,0,0,0,102.889,87.629Zm-30.343,8a5.774,5.774,0,0,0,1.314-1.086h.686V94.6a.785.785,0,0,1,.457.286c.343.457.686.857,1.029,1.257a.758.758,0,0,1-.571.343,10.786,10.786,0,0,0-1.429.629,2.028,2.028,0,0,1-.514.229l-.343.172-2.057,1.2a3.22,3.22,0,0,1-.686.229c-.171.057-.286.286-.572.286A11.216,11.216,0,0,1,72.546,95.629Z" transform="translate(119.94 -63.318)" fill="#1f2937"/><path d="M427.7,161.7a.57.57,0,0,0-.228.286l-.286.171a8.3,8.3,0,0,1-.971,1.486,16.178,16.178,0,0,0-1.143,1.6,10.031,10.031,0,0,1-1.543,1.943,3.175,3.175,0,0,0-.343.457.493.493,0,0,1-.343.171,4.973,4.973,0,0,1-.914-1.714c.057-.286-.229-.457-.343-.686a2.175,2.175,0,0,0-.171-1.029c-.057-.171-.171-.343-.057-.514-.171-.343,0-.743-.114-1.029-.228-.457-.057-.971-.286-1.371v-3.086a1.114,1.114,0,0,0-.057-.457,1.817,1.817,0,0,1-.114-.8v-4.8a2.222,2.222,0,0,1,.114-.857.847.847,0,0,0,0-.743,1.45,1.45,0,0,1-.114-.686v-1.371a2.315,2.315,0,0,1-.286-.514,1.547,1.547,0,0,0-1.143-.914,2.99,2.99,0,0,0-.914-.972,6.355,6.355,0,0,0-2.457-1.086c-.229-.057-.457-.057-.628-.114a3.517,3.517,0,0,0-2.629.286l-1.029.514a4.612,4.612,0,0,0-1.372.972,17.585,17.585,0,0,0-1.943,2.172,8.934,8.934,0,0,0-1.714,3.257l-.514,1.371a8.318,8.318,0,0,0-.743,3.714,1.834,1.834,0,0,0,.114.971c0,.457.229.914.229,1.371a2.655,2.655,0,0,0,.343,1.314,3.2,3.2,0,0,0,1.886,1.543,3.626,3.626,0,0,0,1.543-.229,2.655,2.655,0,0,0,1.2-.743A13.975,13.975,0,0,0,412.9,158.9c.572-.857,1.143-1.714,1.772-2.571.572-.743,1.086-1.486,1.6-2.286.057-.057.114-.114.229,0v2a1.366,1.366,0,0,0,.171.857,2.514,2.514,0,0,0-.114.572V159.7a.344.344,0,0,0,.057.229,1.7,1.7,0,0,1,.114.914c0,.171-.057.343,0,.457a1.522,1.522,0,0,1,.171.686c0,.228.171.4.229.628a7.18,7.18,0,0,0,.571,2.172.725.725,0,0,1,.057.343,16.99,16.99,0,0,0,.743,2.229c.171.514.514.914.686,1.429a1.515,1.515,0,0,0,.286.343,3.672,3.672,0,0,0,1.429,1.029,8.1,8.1,0,0,1,1.029.457h.343a2.538,2.538,0,0,0,2.172-1.143,5.374,5.374,0,0,1,.571-.572,3.629,3.629,0,0,1,.114-.4l.686-1.028a4.565,4.565,0,0,0,.457-.914,6.231,6.231,0,0,1,.571-1.429c.343-.629.629-1.314.914-1.943a3.332,3.332,0,0,1,.171-1.314C427.875,161.757,427.818,161.7,427.7,161.7Zm-10.972-13.544c.114.286-.229.514.057.686l-1.371,2.057a12.558,12.558,0,0,1-.8,1.029c-.686.914-1.371,1.829-2.057,2.8-.286.4-.514.857-.8,1.257-.743,1.086-1.486,2.172-2.229,3.314a3.263,3.263,0,0,1-.4.457c-.114.057-.171,0-.229-.057,0-.229.171-.514-.114-.686a1.668,1.668,0,0,0,.114-.514,3.115,3.115,0,0,1,.286-1.257,7.853,7.853,0,0,0,.286-1.6,2.129,2.129,0,0,0,.114-1.029c.114-.171.286-.286.286-.4a5.161,5.161,0,0,1,.628-1.543l.343-.686a6.011,6.011,0,0,1,1.143-1.543l1.029-1.029a3.266,3.266,0,0,1,1.2-.743c.686-.286,1.372-.457,2-.743.286,0,.457.229.686.171Z" transform="translate(-183.504 -118.303)" fill="#1f2937"/></g></svg>